#!OML:ASF F:\VICON\USERDATA\INSTALL\Justin_Nancy\Justin_Nancy.ASF
:FULLY-SPECIFIED
:DEGREES
114
root -8.2473 17.4033 -15.2247 0.298859 -4.73163 5.10692
lowerback 7.08368 -0.86009 -5.58266
upperback -0.303437 -1.56316 1.2485
thorax -4.11129 -0.643376 4.60664
lowerneck -17.472 -2.23278 -9.17286
upperneck 19.4179 -1.26695 3.04963
head 9.07614 -0.945616 2.39687
rclavicle -1.03865e-014 -2.70347e-014
rhumerus -33.0845 -20.1487 -76.2101
rradius 26.1899
rwrist 11.8002
rhand -12.8504 14.7712
rfingers 7.12502
rthumb 13.2374 -14.7885
lclavicle -1.03865e-014 -2.70347e-014
lhumerus -27.4214 13.1619 82.0723
lradius 25.705
lwrist -11.0957
lhand -17.075 23.8715
lfingers 7.12502
lthumb 9.16302 53.6525
rfemur -30.3904 0.481363 16.588
rtibia 50.975
rfoot -8.91276 -6.90966
rtoes -4.53296
lfemur -6.28206 2.68949 -31.0014
ltibia 25.4245
lfoot -15.605 -3.23573
ltoes 6.34241
115
root -8.25368 17.4098 -15.09 0.36007 -4.62926 5.01272
lowerback 6.94584 -0.924708 -5.54843
upperback -0.0859163 -1.63143 1.30298
thorax -3.79737 -0.693158 4.64267
lowerneck -17.9811 -2.23493 -9.07665
upperneck 19.4012 -1.22865 2.98749
head 9.15871 -0.923866 2.36363
rclavicle -5.397e-014 6.36111e-015
rhumerus -32.9489 -20.0827 -76.3173
rradius 26.3948
rwrist 11.5482
rhand -12.9886 14.5658
rfingers 7.12502
rthumb 13.1042 -15.0025
lclavicle -5.397e-014 6.36111e-015
lhumerus -26.659 13.0548 82.1942
lradius 25.9029
lwrist -10.7884
lhand -17.9424 22.0211
lfingers 7.12502
lthumb 8.32597 51.837
rfemur -30.5827 0.696622 16.7006
rtibia 48.5872
rfoot -8.49516 -7.43717
rtoes -4.91934
lfemur -5.6195 2.85366 -30.9393
ltibia 25.0541
lfoot -15.6448 -3.10796
ltoes 6.13724
116
root -8.26245 17.4078 -14.9571 0.57359 -4.79943 5.16648
lowerback 6.73854 -0.909804 -5.83224
upperback -0.0133547 -1.6203 1.30775
thorax -3.59894 -0.690919 4.79984
lowerneck -18.4805 -2.22733 -8.93924
upperneck 19.5553 -1.16684 2.82021
head 9.29713 -0.904259 2.29204
rclavicle -4.62174e-015 2.38542e-015
rhumerus -32.9743 -20.22 -76.2288
rradius 26.4134
rwrist 11.7091
rhand -12.942 15.1481
rfingers 7.12502
rthumb 13.1491 -14.4173
lclavicle -4.62174e-015 2.38542e-015
lhumerus -26.189 12.9082 82.2269
lradius 26.3939
lwrist -10.876
lhand -21.0003 16.3786
lfingers 7.12502
lthumb 5.37406 46.2905
rfemur -30.9035 1.07053 16.5222
rtibia 46.14
rfoot -8.36738 -7.86448
rtoes -5.66904
lfemur -5.16698 3.01246 -31.1777
ltibia 24.6483
lfoot -15.6701 -2.79458
ltoes 6.03036
117
root -8.26403 17.3997 -14.8236 0.82861 -4.59806 5.50962
lowerback 6.5916 -1.06862 -6.18411
upperback -0.180822 -1.85544 1.28227
thorax -3.65219 -0.795545 4.99215
lowerneck -18.3502 -2.14944 -9.00945
upperneck 19.7041 -1.04194 2.77387
head 9.31824 -0.861015 2.30581
rclavicle 5.26779e-015 7.95139e-015
rhumerus -33.3368 -20.425 -75.8157
rradius 26.2197
rwrist 12.3371
rhand -12.4529 15.8115
rfingers 7.12502
rthumb 13.6206 -13.7229
lclavicle 5.26779e-015 7.95139e-015
lhumerus -26.1455 12.548 82.2544
lradius 26.9577
lwrist -10.793
lhand -20.4533 17.3398
lfingers 7.12502
lthumb 5.90217 47.2376
rfemur -31.08 0.999897 16.0983
rtibia 43.6428
rfoot -8.79153 -8.24362
rtoes -2.99959
lfemur -4.71276 2.94177 -31.6202
ltibia 24.1675
lfoot -15.6867 -2.63925
ltoes 6.34393
118
root -8.26525 17.4023 -14.6899 0.971982 -4.39826 5.58421
lowerback 6.58202 -1.16566 -6.261
upperback -0.254139 -1.99035 1.32805
thorax -3.70173 -0.85705 5.09692
lowerneck -18.1641 -2.13821 -9.12709
upperneck 19.5648 -1.02047 2.80856
head 9.23582 -0.85359 2.33861
rclavicle -1.21259e-014 4.13472e-014
rhumerus -33.6456 -20.6746 -75.4406
rradius 26.1206
rwrist 12.7225
rhand -12.3181 16.0175
rfingers 7.12502
rthumb 13.7504 -13.5081
lclavicle -1.21259e-014 4.13472e-014
lhumerus -26.0574 11.9177 82.4149
lradius 27.5137
lwrist -10.2054
lhand -17.0889 24.8477
lfingers 7.12502
lthumb 9.14958 54.6293
rfemur -31.1038 0.970611 15.9897
rtibia 41.1141
rfoot -8.90038 -8.58165
rtoes -1.06307
lfemur -4.05108 2.96749 -31.7497
ltibia 23.5565
lfoot -15.6269 -2.64122
ltoes 5.96095
119
root -8.27836 17.4136 -14.5548 0.977187 -4.48206 5.60068
lowerback 6.62461 -1.12686 -6.37607
upperback -0.188442 -1.9493 1.31177
thorax -3.65952 -0.837889 5.14146
lowerneck -18.1178 -2.21942 -8.96572
upperneck 19.3171 -1.15352 2.6771
head 9.14818 -0.912543 2.24626
rclavicle 1.18774e-014 2.62396e-014
rhumerus -33.8016 -20.8958 -75.4247
rradius 26.1313
rwrist 12.3853
rhand -12.5222 15.7215
rfingers 7.12502
rthumb 13.5538 -13.8173
lclavicle 1.18774e-014 2.62396e-014
lhumerus -25.6099 11.5457 82.4252
lradius 27.7314
lwrist -9.95531
lhand -15.8849 28.1196
lfingers 7.12502
lthumb 10.3112 57.8468
rfemur -31.0565 1.42245 15.9822
rtibia 38.5553
rfoot -8.22065 -9.05161
rtoes 0.14296
lfemur -3.22648 3.17059 -31.7554
ltibia 22.8784
lfoot -15.509 -2.59596
ltoes 5.89056
120
root -8.28762 17.4209 -14.4127 1.02916 -4.42925 5.63098
lowerback 6.57199 -1.21202 -6.45587
upperback -0.195418 -2.06567 1.3121
thorax -3.61885 -0.895668 5.19537
lowerneck -18.1514 -2.20347 -8.95721
upperneck 19.4238 -1.12925 2.67138
head 9.18967 -0.903697 2.24712
rclavicle -8.59744e-015 0
rhumerus -33.9387 -20.6659 -75.4977
rradius 26.173
rwrist 11.8005
rhand -12.5229 15.2157
rfingers 7.12502
rthumb 13.553 -14.3232
lclavicle -8.59744e-015 0
lhumerus -25.2296 11.5043 82.3962
lradius 27.8945
lwrist -9.51875
lhand -16.1669 28.2172
lfingers 7.12502
lthumb 10.0392 57.9577
rfemur -30.9576 1.54557 15.9873
rtibia 35.9232
rfoot -7.49065 -9.34854
rtoes 1.09793
lfemur -2.3684 3.23597 -31.7926
ltibia 22.2256
lfoot -15.5049 -2.54352
ltoes 5.31993
121
root -8.29219 17.4218 -14.2726 1.29827 -4.21562 5.71828
lowerback 6.3822 -1.33191 -6.53776
upperback -0.29618 -2.22127 1.32423
thorax -3.59276 -0.969802 5.26288
lowerneck -18.2101 -2.14845 -8.97396
upperneck 19.4872 -1.04229 2.67188
head 9.21695 -0.865579 2.26213
rclavicle -3.07122e-014 -9.54166e-015
rhumerus -34.2389 -20.8261 -75.1951
rradius 26.1479
rwrist 12.2974
rhand -12.1981 15.4915
rfingers 7.12502
rthumb 13.8661 -14.0262
lclavicle -3.07122e-014 -9.54166e-015
lhumerus -25.0755 11.2328 82.4673
lradius 28.2317
lwrist -9.02371
lhand -16.5181 27.2039
lfingers 7.12502
lthumb 9.70028 56.9606
rfemur -31 1.3216 15.9818
rtibia 33.2353
rfoot -6.5938 -9.46291
rtoes -0.379216
lfemur -1.83491 3.41016 -31.8621
ltibia 21.6635
lfoot -15.5446 -2.80258
ltoes 3.99647
122
root -8.30209 17.4206 -14.1412 1.53057 -3.9952 5.74818
lowerback 6.21914 -1.42304 -6.5905
upperback -0.293734 -2.33531 1.32783
thorax -3.48051 -1.03007 5.29924
lowerneck -18.2596 -2.13244 -8.90889
upperneck 19.3631 -1.03493 2.6781
head 9.18143 -0.853255 2.25328
rclavicle 1.88845e-015 1.66979e-014
rhumerus -34.4809 -21.3781 -74.8393
rradius 26.217
rwrist 13.4459
rhand -11.5684 15.7031
rfingers 7.12502
rthumb 14.4729 -13.7722
lclavicle 1.88845e-015 1.66979e-014
lhumerus -24.7692 10.8082 82.5066
lradius 28.5744
lwrist -8.7291
lhand -16.7339 26.7002
lfingers 7.12502
lthumb 9.49212 56.4664
rfemur -30.9386 1.21168 16.065
rtibia 30.5398
rfoot -5.59391 -9.60131
rtoes -2.09071
lfemur -1.35753 3.59435 -31.8204
ltibia 21.1962
lfoot -15.5258 -3.18497
ltoes 2.46362
123
root -8.31373 17.4204 -14.0036 1.6433 -3.78431 5.75091
lowerback 6.09071 -1.5229 -6.61548
upperback -0.300482 -2.46167 1.32578
thorax -3.39676 -1.09571 5.31594
lowerneck -18.1084 -2.09154 -8.86125
upperneck 19.38 -1.00579 2.66993
head 9.15753 -0.838188 2.24685
rclavicle 8.94531e-015 1.98785e-014
rhumerus -34.8027 -21.5404 -74.6529
rradius 26.3389
rwrist 13.8463
rhand -11.156 15.6982
rfingers 7.12502
rthumb 14.8702 -13.7481
lclavicle 8.94531e-015 1.98785e-014
lhumerus -24.5704 10.5625 82.4785
lradius 29.0731
lwrist -7.97148
lhand -16.7219 27.0961
lfingers 7.12502
lthumb 9.50364 56.8618
rfemur -30.6236 1.17811 16.1329
rtibia 27.882
rfoot -4.96491 -9.67932
rtoes -2.52944
lfemur -0.762186 3.48915 -31.7385
ltibia 20.8192
lfoot -15.4166 -3.57842
ltoes 3.47197
124
root -8.32023 17.4176 -13.8623 1.79825 -3.67028 5.80248
lowerback 6.01436 -1.60278 -6.66879
upperback -0.397396 -2.56904 1.34032
thorax -3.43724 -1.14386 5.36895
lowerneck -17.9955 -2.08392 -8.86113
upperneck 19.4294 -1.00112 2.64356
head 9.15406 -0.840778 2.23891
rclavicle -9.49197e-015 -1.11319e-014
rhumerus -35.0649 -21.4833 -74.4911
rradius 26.4037
rwrist 13.7216
rhand -11.0089 15.5604
rfingers 7.12502
rthumb 15.0119 -13.8754
lclavicle -9.49197e-015 -1.11319e-014
lhumerus -24.5521 10.3582 82.4563
lradius 29.8258
lwrist -6.95815
lhand -15.858 28.7432
lfingers 7.12502
lthumb 10.3372 58.4691
rfemur -30.3543 0.927001 16.2062
rtibia 25.2797
rfoot -4.82223 -9.48718
rtoes -3.42735
lfemur -0.219305 3.51153 -31.733
ltibia 20.4657
lfoot -15.3231 -4.03817
ltoes 4.67003
125
root -8.32757 17.4169 -13.7237 1.93507 -3.41195 5.8088
lowerback 5.92523 -1.70845 -6.65991
upperback -0.342558 -2.70055 1.36663
thorax -3.31033 -1.21595 5.39577
lowerneck -18.2001 -2.14047 -8.82287
upperneck 19.3141 -1.04805 2.55168
head 9.15367 -0.866316 2.19308
rclavicle -6.06293e-015 3.97569e-015
rhumerus -35.0418 -21.6464 -74.3777
rradius 26.2844
rwrist 13.4767
rhand -11.2034 16.2866
rfingers 7.12502
rthumb 14.8246 -13.1631
lclavicle -6.06293e-015 3.97569e-015
lhumerus -24.1645 10.2324 82.4954
lradius 30.1196
lwrist -6.38577
lhand -15.3565 29.076
lfingers 7.12502
lthumb 10.8209 58.7772
rfemur -30.0689 0.72881 16.274
rtibia 22.8611
rfoot -5.07637 -9.39097
rtoes -4.77255
lfemur 0.383728 3.43375 -31.6674
ltibia 20.0484
lfoot -15.2051 -4.44225
ltoes 4.63782
126
root -8.34094 17.4214 -13.5836 1.92986 -3.1127 5.83145
lowerback 5.81258 -1.78687 -6.75848
upperback -0.201138 -2.79996 1.366
thorax -3.08078 -1.27705 5.44856
lowerneck -18.2756 -2.16806 -8.79061
upperneck 19.2569 -1.10623 2.63343
head 9.15057 -0.880118 2.20788
rclavicle 3.07619e-014 6.36111e-015
rhumerus -35.0471 -21.7069 -74.4329
rradius 26.2135
rwrist 12.9849
rhand -11.5595 16.6428
rfingers 7.12502
rthumb 14.4815 -12.8319
lclavicle 3.07619e-014 6.36111e-015
lhumerus -23.7068 9.94517 82.5439
lradius 30.0121
lwrist -6.56695
lhand -15.8102 27.9339
lfingers 7.12502
lthumb 10.3833 57.6575
rfemur -29.6207 0.763332 16.2325
rtibia 20.7432
rfoot -5.38131 -9.27297
rtoes -5.61692
lfemur 1.13495 3.27498 -31.5657
ltibia 19.5678
lfoot -15.0576 -4.807
ltoes 5.00175
127
root -8.35854 17.4205 -13.4433 1.98121 -2.91302 6.12116
lowerback 5.70244 -1.85033 -7.16083
upperback -0.141916 -2.90431 1.2931
thorax -2.92688 -1.33137 5.59953
lowerneck -18.1734 -2.19989 -8.61684
upperneck 19.0289 -1.17576 2.4825
head 9.05541 -0.911752 2.11597
rclavicle -3.77691e-015 1.19271e-014
rhumerus -35.0989 -21.8236 -74.4003
rradius 26.267
rwrist 13.4212
rhand -11.2223 15.6883
rfingers 7.12502
rthumb 14.8063 -13.7628
lclavicle -3.77691e-015 1.19271e-014
lhumerus -23.2619 9.81937 82.5202
lradius 29.7614
lwrist -7.57391
lhand -16.7092 26.7617
lfingers 7.12502
lthumb 9.51594 56.5268
rfemur -29.3271 0.997197 15.8775
rtibia 18.9637
rfoot -5.35627 -9.1348
rtoes -8.54563
lfemur 1.82165 3.13819 -31.7441
ltibia 19.0701
lfoot -14.9227 -5.07685
ltoes 5.0288
